<svg width="512" height="512" viewBox="0 0 512 512" fill="none" xmlns="http://www.w3.org/2000/svg">
<g clip-path="url(#clip0_7_15)">
<path d="M441.149 356.352C410.219 329.898 378.83 313.873 348.28 340.288L330.038 356.252C316.691 367.841 291.875 421.988 195.929 311.616C100.002 201.383 157.087 184.22 170.454 172.731L188.796 156.747C219.186 130.273 207.717 96.9453 185.799 62.6388L172.571 41.8591C150.553 7.63252 126.576 -14.8455 96.1062 11.5887L79.6422 25.9746C66.1754 35.785 28.5321 67.6739 19.4011 128.255C8.41179 200.944 43.0779 284.182 122.5 375.513C201.823 466.884 279.487 512.779 353.055 511.98C414.195 511.321 451.119 478.513 462.668 466.584L479.192 452.178C509.582 425.764 490.701 398.87 459.751 372.356L441.149 356.352Z" fill="white"/>
</g>
<defs>
<clipPath id="clip0_7_15">
<rect width="512" height="512" fill="white"/>
</clipPath>
</defs>
</svg>
