<svg width="512" height="512" viewBox="0 0 512 512" fill="none" xmlns="http://www.w3.org/2000/svg">
<path d="M202.464 493.432C174.352 493.432 151.48 470.56 151.48 442.448C151.48 414.336 174.352 391.472 202.464 391.472C230.576 391.472 253.448 414.336 253.448 442.448C253.448 470.56 230.576 493.432 202.464 493.432ZM202.464 423.472C197.432 423.476 192.607 425.477 189.048 429.034C185.489 432.592 183.486 437.416 183.48 442.448C183.48 452.92 191.992 461.432 202.464 461.432C212.936 461.432 221.448 452.92 221.448 442.448C221.442 437.416 219.439 432.592 215.88 429.034C212.321 425.477 207.496 423.476 202.464 423.472ZM379.696 493.432C351.584 493.432 328.72 470.56 328.72 442.448C328.72 414.336 351.584 391.472 379.696 391.472C407.808 391.472 430.68 414.336 430.68 442.448C430.68 470.56 407.8 493.432 379.696 493.432ZM379.696 423.472C374.665 423.478 369.842 425.48 366.285 429.037C362.728 432.594 360.726 437.417 360.72 442.448C360.724 447.48 362.725 452.305 366.282 455.864C369.84 459.423 374.664 461.426 379.696 461.432C384.73 461.428 389.556 459.426 393.115 455.867C396.674 452.308 398.676 447.482 398.68 442.448C398.674 437.416 396.671 432.592 393.112 429.034C389.553 425.477 384.728 423.476 379.696 423.472ZM417.024 351.952H165.672C153.859 351.999 142.384 348.011 133.147 340.648C123.909 333.286 117.462 322.99 114.872 311.464L62.704 83.648C62.3583 82.1541 61.6774 80.7584 60.7127 79.5665C59.7481 78.3745 58.525 77.4176 57.136 76.768L13.864 56.712C9.13684 54.4296 5.49652 50.3801 3.72854 45.4375C1.96056 40.4948 2.20668 35.0552 4.41378 30.2924C6.62088 25.5296 10.612 21.8255 15.526 19.9793C20.4399 18.133 25.8828 18.2928 30.68 20.424L73.952 40.48C80.8701 43.7099 86.963 48.471 91.7696 54.403C96.5762 60.335 99.9706 67.2826 101.696 74.72L153.864 302.552C154.466 305.231 155.964 307.624 158.112 309.335C160.259 311.046 162.926 311.972 165.672 311.96H417.024C419.763 311.968 422.423 311.046 424.568 309.344C426.714 307.641 428.217 305.261 428.832 302.592L469.392 128.088C469.821 126.314 469.837 124.465 469.437 122.683C469.038 120.902 468.234 119.237 467.088 117.816C465.963 116.377 464.522 115.216 462.877 114.423C461.232 113.63 459.426 113.225 457.6 113.24H161.6C156.296 113.24 151.209 111.133 147.458 107.382C143.707 103.631 141.6 98.5443 141.6 93.24C141.6 87.9357 143.707 82.8486 147.458 79.0979C151.209 75.3471 156.296 73.24 161.6 73.24H457.6C473.592 73.24 488.456 80.416 498.408 92.936C508.36 105.456 511.976 121.568 508.36 137.144L467.792 311.656C465.156 323.136 458.695 333.378 449.47 340.701C440.244 348.023 428.802 351.991 417.024 351.952Z" fill="white"/>
</svg>
